<?xml version="1.0" encoding="UTF-8" standalone="no"?>
<!DOCTYPE svg PUBLIC "-//W3C//DTD SVG 1.1//EN" "http://www.w3.org/Graphics/SVG/1.1/DTD/svg11.dtd">
<svg width="100%" height="100%" viewBox="0 0 24 24" version="1.1" xmlns="http://www.w3.org/2000/svg" xmlns:xlink="http://www.w3.org/1999/xlink" xml:space="preserve" xmlns:serif="http://www.serif.com/" style="fill-rule:evenodd;clip-rule:evenodd;stroke-linejoin:round;stroke-miterlimit:2;">
    <g transform="matrix(1,0,0,1,-0.75119,0.965948)">
        <path d="M20.581,5.959C20.581,5.74 20.404,5.563 20.186,5.563L5.316,5.563C5.098,5.563 4.921,5.74 4.921,5.959L4.921,6.749C4.921,6.967 5.098,7.144 5.316,7.144L20.186,7.144C20.404,7.144 20.581,6.967 20.581,6.749L20.581,5.959Z"/>
    </g>
    <g transform="matrix(1,0,0,1,-0.75119,5.64613)">
        <path d="M20.581,5.959C20.581,5.74 20.404,5.563 20.186,5.563L5.316,5.563C5.098,5.563 4.921,5.74 4.921,5.959L4.921,6.749C4.921,6.967 5.098,7.144 5.316,7.144L20.186,7.144C20.404,7.144 20.581,6.967 20.581,6.749L20.581,5.959Z"/>
    </g>
    <g transform="matrix(1,0,0,1,-0.75119,10.3527)">
        <path d="M20.581,5.959C20.581,5.74 20.404,5.563 20.186,5.563L5.316,5.563C5.098,5.563 4.921,5.74 4.921,5.959L4.921,6.749C4.921,6.967 5.098,7.144 5.316,7.144L20.186,7.144C20.404,7.144 20.581,6.967 20.581,6.749L20.581,5.959Z"/>
    </g>
</svg>
